<?xml version="1.0" encoding="UTF-8"?>
<svg id="Livello_2" data-name="Livello 2" xmlns="http://www.w3.org/2000/svg" xmlns:xlink="http://www.w3.org/1999/xlink" viewBox="0 0 513.81 453.91">
  <defs>
    <style>
      .cls-1 {
        fill: url(#Sfumatura_senza_nome_13);
      }

      .cls-1, .cls-2 {
        stroke-width: 0px;
      }

      .cls-2 {
        fill: url(#Sfumatura_senza_nome_5);
      }
    </style>
    <linearGradient id="Sfumatura_senza_nome_13" data-name="Sfumatura senza nome 13" x1="-.23" y1="510.03" x2="341.27" y2="-40.84" gradientUnits="userSpaceOnUse">
      <stop offset="0" stop-color="#e9c46a"/>
      <stop offset=".88" stop-color="#e76f51"/>
    </linearGradient>
    <linearGradient id="Sfumatura_senza_nome_5" data-name="Sfumatura senza nome 5" x1="231.35" y1="273.59" x2="485.33" y2="448.63" gradientUnits="userSpaceOnUse">
      <stop offset="0" stop-color="#2a9d8f"/>
      <stop offset="1" stop-color="#264653"/>
    </linearGradient>
  </defs>
  <g id="Livello_1-2" data-name="Livello 1">
    <path class="cls-1" d="M295.4,16.6l-19.33-11.16c-19.42-11.21-44.25-4.56-55.46,14.86C148.91,144.53,77.2,268.76,5.5,392.99c-15.64,27.1,3.96,60.96,35.25,60.9,25.57-.05,51.14-.11,76.72-.16l37.33-62.92h-75.44L295.4,16.6Z"/>
    <path class="cls-2" d="M342.25,233.84c42.56,73.36,85.12,146.71,127.67,220.07h3.22c31.27,0,50.8-33.86,35.15-60.92L343.69,108.34l-1.94-1.12-.1.17c-.04-.06-.08-.11-.12-.17-67.16,116.04-133.3,230.31-200.66,346.69.45,0,.86,0,1.31,0h73.01l64.35-111.47,64.41,111.47h73.6l-100.64-174.31c8.44-15.25,16.89-30.5,25.33-45.75Z"/>
  </g>
</svg>